<?xml version="1.0" standalone="no"?>
<!DOCTYPE svg PUBLIC "-//W3C//DTD SVG 20010904//EN"
 "http://www.w3.org/TR/2001/REC-SVG-20010904/DTD/svg10.dtd">
<svg version="1.0" xmlns="http://www.w3.org/2000/svg"
 width="1280.000000pt" height="1224.000000pt" viewBox="0 0 1280.000000 1224.000000"
 preserveAspectRatio="xMidYMid meet">
<metadata>
Created by potrace 1.15, written by Peter Selinger 2001-2017
</metadata>
<g transform="translate(0.000000,1224.000000) scale(0.100000,-0.100000)"
fill="#000000" stroke="none">
<path d="M3320 12233 c-27 -10 -49 -35 -55 -63 -4 -17 -21 -38 -44 -53 -21
-14 -45 -41 -54 -60 -23 -49 -22 -125 3 -162 34 -51 38 -59 50 -92 15 -40 53
-65 100 -67 47 -1 87 26 107 72 9 20 27 59 41 86 30 59 27 131 -7 177 -16 22
-21 38 -16 56 17 68 -58 131 -125 106z"/>
<path d="M2135 12145 c-60 -60 6 -158 84 -125 53 21 65 82 26 124 -32 34 -77
35 -110 1z"/>
<path d="M10163 12023 c-16 -6 -17 -35 -1 -51 16 -16 23 -15 42 4 12 12 13 20
6 35 -11 19 -23 22 -47 12z"/>
<path d="M9708 11988 c-9 -7 -19 -23 -23 -35 -9 -32 60 -105 98 -105 51 0 80
47 61 97 -7 16 -83 55 -108 55 -7 0 -19 -6 -28 -12z"/>
<path d="M10582 11913 c2 -10 10 -18 18 -18 8 0 16 8 18 18 2 12 -3 17 -18 17
-15 0 -20 -5 -18 -17z"/>
<path d="M2780 11899 c0 -2 40 -132 89 -289 49 -157 88 -286 87 -287 0 -1 -25
5 -54 12 -138 36 -263 -60 -263 -200 0 -172 188 -269 330 -171 21 15 44 38 51
51 7 14 16 25 20 25 5 0 60 -167 60 -184 0 -2 -12 -6 -27 -8 -20 -2 -29 -9
-31 -26 -6 -44 32 -67 61 -37 14 13 17 9 31 -32 9 -26 16 -48 16 -49 0 -1 -17
7 -37 17 -66 33 -152 22 -203 -26 l-25 -24 3 48 c3 42 0 53 -25 80 -39 44 -95
52 -143 19 -114 -77 -13 -251 111 -190 l36 18 -14 -35 c-31 -74 5 -172 81
-216 86 -51 208 -22 251 59 11 20 22 36 25 36 8 0 130 -403 130 -431 0 -13 6
-34 14 -45 26 -37 207 -639 193 -643 -6 -2 -26 -19 -43 -37 -89 -93 -24 -244
104 -244 l39 0 30 -97 c324 -1043 327 -1052 313 -1093 -15 -44 -7 -86 21 -116
l20 -21 -188 -134 -188 -134 -13 -75 c-16 -93 -26 -521 -15 -613 l8 -68 185
130 c102 71 197 139 213 151 24 19 31 20 61 10 19 -6 45 -8 59 -5 14 4 34 2
44 -3 26 -14 53 3 53 33 0 13 -4 27 -10 30 -5 3 -10 21 -10 40 0 32 7 39 157
144 l157 111 12 -28 c6 -15 19 -36 29 -46 13 -12 15 -20 7 -25 -93 -57 -311
-220 -312 -232 0 -8 11 -47 24 -86 15 -45 21 -75 15 -84 -5 -8 -9 -31 -9 -52
0 -31 7 -46 35 -74 32 -32 46 -70 209 -602 112 -362 173 -575 169 -589 -4 -15
1 -30 15 -45 13 -14 61 -155 133 -388 l112 -366 81 -41 c45 -22 101 -48 126
-58 l44 -18 -30 -9 c-16 -5 -44 -21 -63 -35 l-34 -25 -124 63 c-201 101 -422
255 -605 420 l-77 70 -225 0 -226 0 0 34 c0 19 -4 38 -10 41 -21 13 -8 20 43
23 28 1 229 2 445 1 267 -1 392 2 392 9 0 19 -181 594 -191 606 -5 6 -19 26
-32 45 -38 59 -71 76 -141 76 -53 0 -68 -4 -100 -28 -20 -16 -45 -44 -53 -63
-19 -39 -18 -39 -231 -27 l-122 6 0 29 c0 34 -39 78 -69 78 -47 0 -64 24 -105
146 -16 49 -16 52 4 95 25 56 26 140 1 194 -17 37 -83 107 -110 116 -26 9 -61
310 -61 535 0 143 2 157 21 184 21 28 21 30 5 55 -16 24 -16 33 -1 138 26 176
54 294 111 470 l36 107 34 0 c75 0 134 46 154 119 15 55 -4 108 -55 156 -42
40 -43 43 -145 375 -56 184 -106 341 -110 349 -6 10 -13 6 -30 -17 l-23 -31
-30 21 c-39 28 -112 35 -161 14 -21 -9 -47 -16 -57 -16 -11 0 -19 -6 -19 -14
0 -8 -9 -33 -20 -57 -11 -24 -20 -59 -20 -78 0 -50 37 -119 79 -146 l36 -24
-80 -164 c-208 -422 -315 -859 -331 -1342 -8 -223 16 -553 51 -703 5 -22 5
-22 -24 -7 -17 8 -41 15 -55 15 -14 0 -27 4 -31 9 -3 5 -12 55 -20 111 l-14
102 25 38 c64 96 1 220 -111 220 -79 0 -139 -60 -139 -139 0 -45 -2 -49 -47
-80 l-47 -32 -33 20 c-22 13 -51 21 -81 21 -27 0 -48 4 -48 8 0 19 -47 31 -71
18 -20 -10 -24 -20 -25 -56 0 -25 -6 -55 -13 -68 -13 -24 -17 -86 -8 -118 5
-16 -80 -80 -514 -384 -359 -252 -527 -364 -542 -362 -241 28 -263 26 -321
-38 -51 -57 -57 -118 -21 -202 5 -14 2 -18 -13 -18 -23 0 -72 -36 -72 -53 0
-21 -63 -55 -85 -46 -64 25 -148 -8 -184 -71 -56 -100 14 -222 128 -222 85 0
141 50 149 134 l5 49 76 -5 c42 -3 501 -11 1021 -17 520 -7 947 -13 949 -16 3
-2 -1 -9 -7 -15 -35 -35 12 -112 67 -110 56 1 95 58 71 102 -11 20 -7 20 223
20 129 0 308 -3 399 -7 l166 -6 -19 -20 c-11 -12 -19 -35 -19 -54 0 -30 -3
-33 -29 -33 -28 0 -29 2 -24 34 4 29 1 37 -20 51 -20 13 -30 14 -46 6 -25 -14
-36 -48 -21 -66 10 -12 9 -15 -4 -15 -23 0 -21 -5 31 -73 276 -362 621 -668
1004 -889 l127 -73 -34 -23 c-44 -29 -64 -70 -64 -127 0 -71 38 -128 105 -157
24 -10 30 -19 30 -43 0 -25 4 -30 25 -30 20 0 26 6 28 28 2 17 -1 27 -10 28
-7 0 7 8 31 17 26 10 57 33 75 55 27 33 31 47 31 96 l0 58 65 -27 c188 -80
495 -164 725 -199 149 -23 422 -44 509 -39 l59 3 97 285 c54 157 100 294 104
306 6 21 6 21 -183 16 -275 -7 -522 20 -763 85 l-96 25 -11 42 c-6 24 -20 54
-31 69 l-21 26 58 -20 c66 -22 244 -69 266 -69 10 0 -3 56 -55 221 -37 121
-68 223 -68 227 0 4 13 14 28 23 27 15 30 15 61 -7 66 -45 159 -40 221 12 34
29 60 73 60 102 0 11 7 25 15 32 22 18 18 57 -7 75 -21 15 6 16 352 10 206 -4
390 -11 408 -17 22 -7 43 -6 67 2 31 10 39 8 81 -16 61 -36 139 -38 205 -6 40
20 60 22 185 21 136 -1 138 -1 97 -16 -26 -8 -57 -31 -77 -55 l-35 -40 -193 3
-193 4 -40 -113 c-39 -109 -42 -114 -90 -146 -105 -72 -140 -191 -88 -303 14
-31 13 -38 -22 -140 -78 -226 -320 -936 -382 -1122 -41 -120 -69 -188 -73
-180 -8 15 -130 410 -130 422 0 4 16 7 35 7 82 0 117 101 54 154 -39 33 -79
33 -117 1 -22 -18 -37 -23 -63 -20 -19 2 -79 9 -134 16 -110 12 -318 50 -408
74 -77 20 -80 20 -73 -11 5 -17 0 -41 -14 -70 -15 -29 -20 -53 -15 -72 7 -32
48 -76 81 -86 17 -5 47 -92 197 -579 387 -1257 559 -1812 562 -1815 2 -2 32
84 68 190 47 140 68 192 78 189 38 -12 108 -3 142 18 51 31 91 116 85 176 -5
43 -5 44 15 30 53 -37 127 4 127 70 0 46 -36 85 -79 85 -38 0 -82 -38 -84 -72
l-2 -26 -36 33 c-20 18 -42 34 -49 37 -10 3 -3 36 31 133 35 103 51 135 78
160 43 39 61 75 61 122 0 36 3 39 52 63 74 36 111 91 116 174 4 66 -9 108 -50
153 -18 19 -19 26 -8 60 7 21 27 54 45 73 55 59 69 96 70 185 1 77 8 102 175
590 95 281 182 520 193 532 11 12 17 29 14 37 -7 18 61 226 98 299 14 28 25
62 26 76 0 15 24 95 53 180 l52 154 48 12 c26 7 59 24 75 39 15 14 36 26 47
26 81 0 166 142 136 228 -16 47 -3 52 142 52 l130 0 -41 -35 c-64 -55 -87
-135 -58 -206 7 -19 -154 -135 -317 -230 -56 -32 -105 -64 -109 -71 -3 -7 -50
-142 -104 -299 -95 -282 -97 -287 -128 -296 -43 -12 -80 -68 -73 -108 7 -38
58 -85 92 -85 39 0 84 28 98 62 15 34 86 69 86 42 0 -22 41 -44 62 -33 20 11
24 49 8 65 -8 8 4 16 37 29 26 10 89 38 138 63 788 392 1389 1074 1671 1896
19 55 34 101 34 103 0 5 -522 395 -524 391 -2 -2 -13 -46 -26 -98 -44 -187
-151 -457 -245 -622 -69 -120 -149 -248 -156 -248 -3 0 -4 11 -2 25 3 13 -3
46 -12 72 l-17 49 41 64 41 65 -198 6 c-108 4 -281 7 -383 8 -156 1 -189 4
-200 17 -23 28 -87 54 -131 54 -45 0 -115 -27 -135 -51 -8 -10 -31 -13 -87
-11 -65 3 -76 6 -76 22 0 47 -73 55 -78 8 -3 -24 -8 -28 -34 -28 -29 0 -30 1
-15 18 9 10 23 33 30 51 l15 34 293 -2 294 -2 52 153 c55 164 320 945 328 965
3 9 15 6 41 -12 42 -28 92 -40 135 -31 27 5 92 -41 767 -548 406 -304 746
-565 755 -580 10 -14 37 -40 60 -57 l42 -31 -284 4 -284 4 -39 -85 c-21 -47
-51 -111 -65 -143 -23 -50 -30 -57 -62 -63 -74 -14 -121 -73 -121 -150 0 -20
5 -45 11 -56 9 -17 6 -28 -15 -60 -14 -21 -26 -41 -26 -44 0 -3 100 -5 223 -5
122 0 280 -3 350 -7 112 -5 127 -8 121 -22 -4 -9 -10 -41 -12 -71 -4 -64 19
-108 78 -148 29 -20 44 -23 93 -20 64 5 98 25 135 79 19 28 23 44 20 89 -2 30
-8 63 -12 72 -8 17 11 17 320 13 181 -3 429 -8 550 -11 l222 -6 -24 -35 c-81
-120 48 -267 180 -204 82 40 107 139 54 213 l-19 28 110 0 c97 0 113 -2 131
-20 88 -88 154 -438 168 -892 10 -292 0 -486 -32 -635 -32 -149 -33 -192 -5
-227 17 -22 28 -26 73 -26 61 0 86 19 86 67 0 16 -11 95 -25 175 -47 281 -54
840 -15 1363 5 72 10 144 10 160 0 28 -30 53 -469 380 l-470 350 6 61 c5 52 2
68 -18 103 -32 57 -80 85 -146 85 -38 0 -60 -6 -82 -22 l-31 -22 -235 176
c-129 97 -233 181 -232 187 1 7 -4 11 -12 9 -7 -1 -76 44 -153 102 -108 81
-145 114 -160 146 -24 49 -79 88 -134 97 -30 5 -101 53 -316 215 -153 114
-277 212 -277 216 4 26 -5 47 -30 73 -24 23 -38 29 -74 29 -41 0 -57 10 -286
181 -133 100 -244 180 -247 177 -2 -3 -26 -70 -53 -149 l-48 -144 -54 4 c-30
1 -55 4 -56 5 -1 1 28 89 65 197 l67 195 21 -25 c27 -32 70 -23 80 16 10 39
-7 58 -50 57 -30 -1 -36 2 -31 15 4 9 33 94 65 189 l60 173 -36 71 c-76 151
-222 365 -341 500 l-51 57 -69 -202 c-66 -190 -72 -202 -96 -205 -21 -3 -30 3
-39 22 -6 14 -15 26 -19 26 -5 0 -6 13 -3 28 10 48 -50 84 -84 50 -14 -14 -16
-64 -2 -73 6 -3 5 -15 -2 -30 -8 -18 -8 -32 0 -49 9 -20 7 -27 -10 -43 -11
-10 -28 -34 -39 -54 -10 -20 -24 -39 -31 -41 -7 -3 -75 41 -150 98 -132 98
-136 103 -118 119 31 28 53 99 48 150 -15 125 -152 202 -262 145 -38 -19 -39
-19 -80 2 -30 16 -58 21 -105 20 -41 0 -72 5 -87 14 l-22 15 36 34 37 34 -3
95 c-1 53 -6 106 -11 119 -9 23 5 34 251 208 144 101 265 186 270 187 4 2 8
-6 8 -17 0 -31 45 -57 75 -43 34 16 31 8 -6 -16 l-31 -19 63 -39 c514 -310
939 -847 1135 -1431 38 -115 41 -133 20 -133 -23 0 -46 -29 -46 -59 0 -36 28
-61 68 -61 33 0 29 10 58 -142 4 -21 70 -75 320 -262 172 -130 316 -236 319
-236 4 0 5 63 3 140 -3 122 -1 140 13 140 41 0 116 36 155 76 74 74 91 181 44
273 -22 45 -90 108 -123 117 -14 3 -29 15 -35 28 -20 44 -68 90 -117 111 -49
22 -50 24 -68 91 -29 106 -113 327 -178 462 -57 120 -58 125 -52 187 5 54 3
68 -17 99 -23 38 -65 66 -99 66 -14 0 -34 21 -63 63 -158 234 -355 463 -529
617 l-77 68 30 6 c20 4 33 15 42 37 l13 31 123 -119 c68 -65 165 -166 216
-225 51 -59 95 -104 97 -100 2 4 12 31 22 61 l18 54 12 -37 c18 -50 51 -84 96
-97 99 -30 189 39 189 144 0 114 -139 189 -227 121 -18 -14 -33 -23 -33 -21 0
7 150 439 156 448 3 5 14 9 24 9 11 0 34 13 52 29 28 25 33 36 33 74 0 30 -7
55 -20 73 l-21 27 59 171 c110 323 100 300 141 307 42 7 63 -10 58 -47 -2 -13
4 -40 14 -60 64 -135 274 -71 249 77 -4 21 -11 41 -15 44 -5 3 -2 21 6 40 8
19 14 44 14 55 0 20 1 20 33 4 40 -22 114 -21 156 0 31 17 32 17 58 -15 29
-34 94 -68 130 -69 16 0 25 -8 30 -27 4 -16 8 -179 8 -363 0 -272 -3 -355 -17
-443 -31 -188 -21 -247 41 -232 47 12 51 39 24 180 -25 125 -24 540 1 744 l17
144 54 51 c73 70 90 131 60 217 -48 136 -228 184 -331 88 -19 -18 -22 -18 -34
-4 -41 50 -153 61 -210 23 -46 -32 -71 -68 -77 -115 l-5 -40 -32 16 c-19 10
-53 16 -89 15 -50 -1 -58 1 -63 20 -4 17 107 357 290 884 14 42 20 70 13 66
-7 -4 -66 -46 -132 -93 -66 -46 -142 -93 -169 -102 -55 -21 -51 -18 -80 -58
-11 -17 -127 -105 -256 -195 -175 -123 -238 -162 -247 -154 -19 16 -43 2 -43
-26 0 -18 -14 -34 -50 -60 -28 -20 -58 -36 -68 -36 -9 0 -28 -13 -42 -30 -14
-16 -169 -131 -345 -254 -230 -162 -331 -227 -358 -231 -37 -7 -97 -55 -97
-78 0 -19 -439 -322 -461 -319 -34 6 -88 -28 -105 -67 -14 -30 -80 -81 -436
-331 -231 -162 -447 -314 -479 -338 l-59 -42 181 -136 c144 -108 179 -139 173
-152 -4 -9 -9 -34 -12 -54 -2 -21 -7 -38 -10 -38 -3 0 -184 134 -403 298 -294
219 -397 301 -392 312 4 8 8 36 11 62 l4 47 56 8 c89 12 456 9 568 -5 l102
-13 313 221 c173 122 321 226 329 230 20 11 18 13 -85 43 -540 161 -1133 185
-1665 68 l-85 -19 -32 38 c-42 48 -80 64 -144 58 -84 -8 -149 -75 -149 -153
l0 -42 -87 -32 c-106 -40 -383 -174 -474 -230 -44 -27 -73 -38 -87 -34 -63 16
-167 -29 -209 -90 -47 -69 -48 -174 -2 -239 12 -16 20 -30 18 -31 -2 -1 -18
-12 -36 -25 -18 -12 -34 -22 -37 -22 -3 0 -15 32 -26 72 -18 57 -20 75 -10 93
18 33 9 68 -22 83 -22 10 -32 28 -52 95 -14 45 -50 163 -81 262 -61 201 -58
185 -46 204 6 10 62 -27 230 -153 121 -91 223 -166 226 -166 3 0 58 30 123 67
127 72 294 153 410 198 39 15 72 31 71 34 -1 5 -2137 1608 -2199 1650 -11 7
-20 12 -20 10z m5801 -1700 c-6 -13 -42 -118 -81 -234 -102 -303 -99 -295
-126 -295 -33 0 -67 -36 -62 -65 4 -19 -15 -7 -104 61 l-110 84 -46 -32 c-26
-18 -116 -81 -200 -140 -84 -59 -163 -108 -176 -108 -12 0 -27 -5 -34 -12 -9
-9 -12 -9 -12 0 0 7 -11 24 -24 37 l-25 24 502 354 c276 195 503 353 505 352
1 -1 -2 -13 -7 -26z m-3040 -576 c6 -16 18 -36 26 -46 9 -9 14 -19 12 -20 -2
-2 -40 -13 -84 -26 -81 -22 -262 -87 -335 -120 l-41 -18 144 -108 c135 -100
145 -111 151 -147 10 -59 -1 -85 -40 -98 -46 -16 -74 -54 -74 -102 0 -55 51
-108 105 -108 29 0 45 8 71 34 19 19 34 41 34 50 0 11 9 16 26 16 33 0 64 16
89 45 l20 24 132 -99 c110 -83 132 -104 138 -132 18 -83 94 -143 174 -137 32
3 49 -3 87 -31 26 -19 52 -38 57 -41 6 -4 3 -16 -6 -29 -8 -12 -12 -30 -10
-41 11 -42 75 -49 88 -9 5 17 23 7 135 -78 l130 -96 -43 -13 c-24 -7 -57 -28
-77 -48 -33 -34 -35 -40 -35 -103 0 -79 18 -111 81 -142 108 -54 226 20 226
141 0 35 4 47 12 41 6 -5 63 -47 126 -94 63 -47 124 -95 135 -108 11 -12 36
-30 55 -40 19 -10 143 -99 275 -198 l240 -180 68 198 69 198 27 -8 c16 -4 40
-6 55 -3 14 3 26 4 26 1 0 -2 -52 -156 -116 -343 -64 -187 -133 -389 -153
-449 -22 -64 -41 -105 -45 -98 -12 19 -54 14 -66 -8 -14 -26 3 -60 30 -60 11
0 20 -4 20 -8 0 -4 -29 -91 -63 -193 -35 -101 -96 -279 -136 -395 -68 -199
-74 -212 -104 -226 -18 -9 -39 -28 -47 -44 -8 -16 -15 -31 -17 -33 -1 -2 -16
7 -34 20 -29 20 -46 23 -147 25 -129 3 -161 -7 -187 -56 -8 -16 -15 -43 -15
-60 0 -35 25 -90 41 -90 5 0 17 -17 26 -37 8 -21 24 -51 35 -66 l21 -29 -109
6 c-60 3 -352 8 -649 12 l-540 6 -31 34 c-56 60 -129 71 -202 29 -30 -17 -44
-21 -47 -12 -2 7 -18 59 -36 117 -17 58 -34 111 -36 118 -3 7 4 12 18 12 45 0
110 41 141 89 26 41 29 53 26 107 -5 74 -33 122 -93 156 -48 27 -125 30 -170
6 l-31 -16 -136 439 c-126 408 -135 441 -125 478 9 31 7 48 -5 80 l-16 41 28
-15 c111 -57 259 -5 316 110 23 47 26 64 22 122 -3 38 -8 75 -11 83 -5 11 49
54 204 163 175 123 213 146 229 137 27 -15 112 -12 135 4 74 52 111 105 85
121 -5 3 -10 16 -10 28 1 17 38 48 160 132 88 61 159 112 159 115 0 3 -115 90
-254 193 l-254 189 -447 -315 c-431 -303 -448 -315 -470 -300 -13 8 -32 12
-43 8 -22 -7 -37 -45 -27 -70 4 -10 -25 -36 -94 -85 -54 -38 -103 -70 -108
-70 -19 0 -103 53 -95 60 4 3 52 37 106 75 53 37 97 69 97 71 0 1 -63 206
-140 456 -77 249 -143 462 -146 472 -5 15 -2 18 15 13 11 -3 36 -1 56 3 l35 8
15 -50 c10 -35 12 -56 5 -68 -15 -29 -12 -88 7 -117 42 -63 145 -63 183 0 11
18 20 49 20 71 0 31 -7 45 -35 72 l-35 33 58 45 c165 126 420 271 622 352 94
37 293 102 318 103 7 1 17 -11 23 -26z m-2502 -3523 c18 -66 37 -122 40 -125
4 -2 64 -7 134 -11 94 -5 127 -10 127 -20 0 -7 5 -16 11 -19 16 -11 59 4 59
20 0 12 20 15 115 15 115 0 116 0 104 -21 -6 -12 -9 -37 -7 -55 l4 -34 -450 6
c-248 4 -522 9 -610 13 l-158 6 117 83 117 83 37 -34 c21 -19 54 -37 74 -41
95 -18 187 55 187 149 0 26 8 47 28 70 15 19 29 34 32 34 3 1 20 -53 39 -119z
m2480 -650 c23 -74 44 -144 48 -155 6 -20 5 -20 -16 -1 -12 11 -40 22 -63 25
l-42 6 -43 135 c-23 74 -43 136 -43 137 -1 8 106 6 111 -2 4 -5 26 -71 48
-145z m2775 -102 c-25 -43 -99 -118 -116 -118 -29 0 -58 -18 -58 -37 0 -11 -6
-14 -22 -9 -13 3 -38 6 -57 6 l-34 0 74 78 c70 73 76 77 114 74 22 -1 54 2 70
7 17 5 31 10 33 10 2 1 0 -5 -4 -11z"/>
<path d="M6100 8565 c0 -10 7 -15 18 -13 21 4 19 22 -2 26 -10 2 -16 -3 -16
-13z"/>
<path d="M4795 8454 c-18 -18 -16 -33 7 -47 35 -22 66 21 36 51 -16 16 -23 15
-43 -4z"/>
<path d="M6093 8404 c-88 -44 -96 -184 -15 -235 18 -11 18 -15 6 -45 -20 -47
-17 -90 7 -134 22 -39 82 -80 117 -80 15 0 21 -9 26 -46 10 -79 7 -178 -9
-230 -26 -85 -18 -123 24 -109 17 5 18 19 17 197 -1 162 1 192 14 196 8 3 32
21 52 42 69 68 61 165 -18 226 -30 22 -39 35 -33 45 5 8 9 31 9 53 0 100 -106
165 -197 120z"/>
<path d="M7320 7610 c0 -13 7 -20 20 -20 13 0 20 7 20 20 0 13 -7 20 -20 20
-13 0 -20 -7 -20 -20z"/>
<path d="M5603 7149 c-104 -51 -135 -200 -61 -294 45 -57 150 -83 223 -55 86
33 138 134 114 224 -32 121 -163 181 -276 125z"/>
<path d="M7030 6876 c-27 -33 18 -72 48 -42 13 13 14 20 6 34 -15 23 -38 26
-54 8z"/>
<path d="M5192 6808 c-16 -16 -15 -53 3 -68 19 -16 45 -10 61 15 26 39 -31 86
-64 53z"/>
<path d="M7174 6672 c-30 -4 -57 -38 -84 -103 -23 -56 -23 -57 -4 -95 26 -53
80 -74 129 -51 49 23 64 53 67 129 3 58 0 70 -20 91 -24 26 -51 35 -88 29z"/>
<path d="M5492 6584 c-37 -26 -23 -74 23 -74 42 0 59 44 29 74 -19 20 -24 20
-52 0z"/>
<path d="M5925 6118 c-27 -15 -35 -28 -35 -59 0 -30 28 -59 56 -59 33 0 64 29
64 58 0 33 -8 45 -37 61 -26 13 -23 13 -48 -1z"/>
<path d="M5595 6040 c-35 -38 5 -100 57 -87 33 9 50 46 34 78 -16 33 -65 38
-91 9z"/>
<path d="M3049 11875 c-54 -29 -60 -107 -12 -145 91 -72 201 60 112 134 -34
29 -61 32 -100 11z"/>
<path d="M3596 11745 c-25 -26 -20 -72 10 -92 23 -15 29 -15 52 -2 32 18 44
50 28 80 -14 30 -66 38 -90 14z"/>
<path d="M4024 11505 c-4 -9 -2 -21 4 -27 15 -15 44 -1 40 19 -4 23 -36 29
-44 8z"/>
<path d="M2390 11360 c-24 -24 -25 -43 -4 -64 18 -19 55 -21 72 -4 19 19 14
55 -10 72 -29 20 -34 20 -58 -4z"/>
<path d="M10332 11313 c-52 -44 -24 -123 42 -123 65 0 92 75 44 120 -27 25
-59 26 -86 3z"/>
<path d="M2526 11209 c-20 -30 -6 -63 28 -67 33 -4 56 13 56 42 0 47 -57 63
-84 25z"/>
<path d="M2220 11065 c0 -8 7 -15 15 -15 8 0 15 7 15 15 0 8 -7 15 -15 15 -8
0 -15 -7 -15 -15z"/>
<path d="M3992 11023 c5 -26 38 -29 38 -4 0 15 -6 21 -21 21 -14 0 -19 -5 -17
-17z"/>
<path d="M9644 10949 c-10 -17 13 -36 27 -22 12 12 4 33 -11 33 -5 0 -12 -5
-16 -11z"/>
<path d="M7699 10907 c-48 -32 -68 -91 -48 -143 41 -109 196 -110 237 -2 12
31 12 43 1 80 -26 81 -119 113 -190 65z"/>
<path d="M4852 10807 c-62 -66 13 -174 94 -135 85 40 59 158 -34 158 -27 0
-45 -7 -60 -23z"/>
<path d="M2185 10779 c-4 -5 -4 -21 -1 -35 5 -20 12 -25 33 -22 34 4 51 31 34
52 -15 18 -56 21 -66 5z"/>
<path d="M7736 10569 c-52 -41 -23 -129 43 -129 71 0 101 80 47 127 -33 28
-56 29 -90 2z"/>
<path d="M2949 10005 c-63 -34 -80 -128 -34 -184 76 -90 215 -40 215 78 0 26
-7 56 -16 69 -34 48 -112 66 -165 37z"/>
<path d="M6268 9715 c-15 -9 -32 -24 -38 -35 -17 -31 -12 -85 11 -114 11 -14
16 -26 10 -26 -6 0 -18 -11 -26 -24 -20 -31 -6 -72 32 -89 16 -6 34 -17 41
-24 18 -17 27 -16 46 3 18 18 20 30 6 39 -5 3 -10 19 -10 35 0 16 -4 32 -10
35 -17 10 -11 25 9 25 27 0 71 56 71 91 0 37 -45 87 -85 94 -17 3 -42 -1 -57
-10z"/>
<path d="M3333 9672 c-33 -21 -32 -82 1 -104 37 -25 96 8 96 54 0 40 -62 72
-97 50z"/>
<path d="M2935 9375 c-33 -32 -33 -78 0 -117 25 -30 30 -47 26 -104 -1 -18 2
-35 8 -39 7 -4 11 14 11 54 0 60 1 61 34 75 71 30 76 109 9 144 -34 18 -62 14
-88 -13z"/>
<path d="M9440 9230 c-22 -40 17 -89 60 -75 24 7 37 51 23 74 -16 26 -69 26
-83 1z"/>
<path d="M7172 8938 c6 -18 28 -21 28 -4 0 9 -7 16 -16 16 -9 0 -14 -5 -12
-12z"/>
<path d="M7952 8888 c2 -15 10 -23 23 -23 30 0 27 39 -3 43 -20 3 -23 0 -20
-20z"/>
<path d="M7542 8827 c-44 -46 -15 -120 47 -120 66 0 101 84 52 125 -32 25 -73
23 -99 -5z"/>
<path d="M10085 6936 c-19 -28 -9 -58 26 -76 45 -25 94 51 57 88 -21 21 -66
14 -83 -12z"/>
<path d="M2074 6836 c-10 -26 4 -48 28 -44 17 2 23 10 23 28 0 18 -6 26 -23
28 -13 2 -25 -3 -28 -12z"/>
<path d="M3910 6813 c-41 -15 -51 -62 -20 -93 26 -26 46 -25 75 5 31 30 31 40
0 70 -25 26 -29 27 -55 18z"/>
<path d="M1792 6581 c4 -13 18 -16 19 -4 0 4 -5 9 -11 12 -7 2 -11 -2 -8 -8z"/>
<path d="M8817 6573 c-13 -12 -7 -41 10 -47 20 -8 44 19 36 40 -5 14 -35 19
-46 7z"/>
<path d="M10870 6360 c-59 -59 27 -152 93 -100 33 26 37 78 9 103 -25 23 -78
21 -102 -3z"/>
<path d="M8684 6355 c-9 -23 3 -45 25 -45 10 0 21 7 25 15 8 23 -4 45 -25 45
-11 0 -22 -7 -25 -15z"/>
<path d="M4271 6326 c-16 -19 -11 -46 12 -60 25 -16 52 4 52 40 0 24 -5 30
-26 32 -14 2 -31 -4 -38 -12z"/>
<path d="M8586 6324 c-32 -31 -5 -94 41 -94 21 0 43 31 43 60 0 45 -52 66 -84
34z"/>
<path d="M10510 6225 c-11 -13 -11 -19 3 -32 21 -21 49 -9 45 19 -4 28 -30 35
-48 13z"/>
<path d="M430 6024 c-19 -8 -42 -22 -52 -30 -9 -9 -32 -23 -50 -32 -37 -19
-50 -62 -25 -90 8 -10 20 -34 27 -55 25 -78 88 -127 164 -127 108 0 177 66
178 171 1 127 -126 213 -242 163z"/>
<path d="M7874 5849 c-10 -17 13 -36 27 -22 12 12 4 33 -11 33 -5 0 -12 -5
-16 -11z"/>
<path d="M9037 5294 c-14 -15 -6 -34 14 -34 14 0 19 5 17 17 -3 18 -20 27 -31
17z"/>
<path d="M11760 5285 c-26 -31 13 -82 44 -56 19 16 21 42 4 59 -16 16 -33 15
-48 -3z"/>
<path d="M1780 5246 c-27 -33 18 -72 48 -42 13 13 14 20 6 34 -15 23 -38 26
-54 8z"/>
<path d="M11981 5221 c-17 -11 -10 -46 9 -46 17 0 26 33 13 46 -4 4 -14 4 -22
0z"/>
<path d="M12034 5215 c-9 -23 3 -45 26 -45 25 0 37 25 20 45 -16 19 -39 19
-46 0z"/>
<path d="M12686 5189 c-50 -40 -21 -119 44 -119 35 0 70 34 70 67 0 29 -42 73
-68 73 -11 0 -31 -9 -46 -21z"/>
<path d="M154 5175 c-9 -23 3 -45 25 -45 23 0 35 28 20 46 -15 18 -38 18 -45
-1z"/>
<path d="M10682 5114 c-36 -25 -27 -89 15 -105 62 -23 110 54 63 101 -24 24
-48 25 -78 4z"/>
<path d="M641 5096 c-26 -14 -50 -51 -51 -78 0 -9 12 -30 26 -47 20 -24 34
-31 60 -31 79 0 114 93 53 144 -34 29 -53 32 -88 12z"/>
<path d="M12245 5089 c-73 -20 -112 -105 -80 -172 23 -49 60 -71 118 -70 46 1
47 0 66 -42 10 -23 36 -55 57 -71 33 -25 46 -29 104 -29 55 0 73 4 107 27 102
67 102 228 1 296 -54 35 -139 41 -188 14 l-35 -20 -25 30 c-28 33 -80 48 -125
37z"/>
<path d="M6610 5060 c-24 -24 -24 -29 -4 -58 17 -24 53 -29 72 -10 17 17 15
54 -4 72 -21 21 -40 20 -64 -4z"/>
<path d="M6100 4990 c-24 -24 -25 -34 -4 -54 22 -22 51 -20 64 5 14 25 8 44
-19 59 -17 8 -24 7 -41 -10z"/>
<path d="M9933 4876 c-71 -34 -106 -87 -111 -172 -3 -50 0 -72 18 -109 26 -53
85 -101 137 -111 27 -5 33 -10 27 -23 -29 -68 -35 -96 -25 -119 10 -20 17 -23
53 -20 65 5 70 33 24 139 -5 13 0 18 24 23 119 23 194 178 141 291 -52 111
-173 154 -288 101z"/>
<path d="M149 4836 c-56 -15 -84 -34 -115 -80 -51 -74 -41 -166 25 -239 l36
-40 0 -178 c0 -113 4 -179 10 -179 6 0 10 62 11 165 0 93 4 169 10 175 5 5 22
6 39 2 l30 -8 8 -115 c4 -63 9 -172 10 -244 3 -108 6 -131 19 -133 27 -5 29
14 11 108 -15 80 -16 107 -5 230 6 77 15 147 19 154 4 8 24 25 43 38 70 47
102 128 80 207 -11 41 -57 104 -90 121 -38 20 -96 27 -141 16z"/>
<path d="M9080 4805 c-26 -32 13 -81 48 -59 34 22 22 74 -18 74 -10 0 -23 -7
-30 -15z"/>
<path d="M3445 4791 c-168 -77 -115 -323 70 -323 178 0 232 250 71 323 -52 23
-90 23 -141 0z"/>
<path d="M10985 4760 c4 -6 11 -8 16 -5 14 9 11 15 -7 15 -8 0 -12 -5 -9 -10z"/>
<path d="M12334 4620 c-47 -19 -70 -93 -41 -131 34 -44 83 -49 126 -13 23 19
31 34 31 59 0 61 -64 107 -116 85z"/>
<path d="M5780 4530 c-44 -44 -8 -108 57 -101 43 4 58 79 21 105 -30 21 -54
20 -78 -4z"/>
<path d="M12063 4510 c-47 -19 -57 -87 -18 -125 30 -31 66 -32 101 -2 20 17
27 33 27 57 0 24 -7 40 -27 57 -29 24 -47 27 -83 13z"/>
<path d="M11231 4426 c-75 -41 -64 -152 18 -186 39 -16 95 2 118 36 19 30 28
124 12 124 -6 0 -22 9 -36 20 -29 23 -77 25 -112 6z"/>
<path d="M7507 3793 c-4 -3 -7 -12 -7 -20 0 -15 26 -18 34 -4 7 11 -18 33 -27
24z"/>
<path d="M5026 3577 c-38 -27 2 -95 42 -71 24 16 28 55 6 71 -10 7 -21 13 -24
13 -3 0 -14 -6 -24 -13z"/>
<path d="M5202 3528 c-21 -21 -14 -57 13 -70 22 -10 29 -9 47 10 19 18 20 25
10 47 -13 27 -49 34 -70 13z"/>
<path d="M6993 3410 c-45 -27 -66 -64 -66 -115 0 -51 21 -88 66 -115 87 -53
197 9 197 112 0 107 -108 173 -197 118z"/>
<path d="M5002 3269 c-103 -52 -131 -189 -56 -279 37 -43 78 -62 138 -62 78
-1 132 34 170 109 28 57 14 145 -32 196 -51 57 -147 72 -220 36z"/>
<path d="M6660 2331 c-14 -26 -3 -50 26 -57 42 -11 72 34 42 64 -18 18 -56 14
-68 -7z"/>
<path d="M6577 1532 c-22 -24 -21 -45 1 -65 23 -21 46 -22 66 -1 30 30 9 84
-33 84 -10 0 -25 -8 -34 -18z"/>
<path d="M5696 1384 c-23 -23 -20 -51 8 -69 46 -31 97 25 60 66 -21 23 -47 24
-68 3z"/>
<path d="M6437 1322 c-22 -24 -21 -45 1 -65 23 -21 46 -22 66 -1 30 30 9 84
-33 84 -10 0 -25 -8 -34 -18z"/>
<path d="M5176 1271 c-4 -7 -5 -15 -2 -18 9 -9 19 4 14 18 -4 11 -6 11 -12 0z"/>
<path d="M5507 983 c-13 -12 -7 -33 10 -33 13 0 12 -5 -10 -27 -95 -100 -63
-254 65 -308 70 -28 145 -12 199 45 134 140 -7 370 -188 307 -23 -8 -42 -12
-41 -8 3 28 -17 42 -35 24z"/>
<path d="M6100 690 c-156 -30 -235 -197 -162 -341 32 -64 99 -114 167 -125 42
-6 45 -9 51 -42 4 -20 2 -61 -4 -90 -12 -58 -9 -77 15 -87 27 -10 36 10 28 62
-8 50 -8 105 1 136 3 9 27 28 54 42 86 44 130 119 130 221 -1 142 -139 252
-280 224z"/>
</g>
</svg>
